<svg viewBox="0 0 1700 1300" xmlns="http://www.w3.org/2000/svg" font-family="Segoe UI, Helvetica, Arial, sans-serif">
<defs>
  <radialGradient id="bgGrad" cx="50%" cy="20%" r="90%">
    <stop offset="0%" stop-color="#111a2e"/>
    <stop offset="100%" stop-color="#0a0f1e"/>
  </radialGradient>
  <linearGradient id="routerGrad" x1="0" y1="0" x2="0" y2="1">
    <stop offset="0%" stop-color="#3b82f6"/>
    <stop offset="100%" stop-color="#1d4ed8"/>
  </linearGradient>
  <linearGradient id="mlsGrad" x1="0" y1="0" x2="0" y2="1">
    <stop offset="0%" stop-color="#22d3ee"/>
    <stop offset="100%" stop-color="#0891b2"/>
  </linearGradient>
  <linearGradient id="swGrad" x1="0" y1="0" x2="0" y2="1">
    <stop offset="0%" stop-color="#2dd4bf"/>
    <stop offset="100%" stop-color="#0d9488"/>
  </linearGradient>
  <linearGradient id="srvGrad" x1="0" y1="0" x2="0" y2="1">
    <stop offset="0%" stop-color="#a78bfa"/>
    <stop offset="100%" stop-color="#7c3aed"/>
  </linearGradient>
  <linearGradient id="secGrad" x1="0" y1="0" x2="1" y2="0">
    <stop offset="0%" stop-color="#fb923c"/>
    <stop offset="100%" stop-color="#ef4444"/>
  </linearGradient>
  <filter id="softShadow" x="-40%" y="-40%" width="180%" height="180%">
    <feDropShadow dx="0" dy="3" stdDeviation="4" flood-color="#000000" flood-opacity="0.45"/>
  </filter>
</defs>
<rect x="0" y="0" width="1700" height="1300" fill="url(#bgGrad)"/><g opacity="0.06"><line x1="40" y1="0" x2="40" y2="1300" stroke="#8fb4ff" stroke-width="1"/><line x1="80" y1="0" x2="80" y2="1300" stroke="#8fb4ff" stroke-width="1"/><line x1="120" y1="0" x2="120" y2="1300" stroke="#8fb4ff" stroke-width="1"/><line x1="160" y1="0" x2="160" y2="1300" stroke="#8fb4ff" stroke-width="1"/><line x1="200" y1="0" x2="200" y2="1300" stroke="#8fb4ff" stroke-width="1"/><line x1="240" y1="0" x2="240" y2="1300" stroke="#8fb4ff" stroke-width="1"/><line x1="280" y1="0" x2="280" y2="1300" stroke="#8fb4ff" stroke-width="1"/><line x1="320" y1="0" x2="320" y2="1300" stroke="#8fb4ff" stroke-width="1"/><line x1="360" y1="0" x2="360" y2="1300" stroke="#8fb4ff" stroke-width="1"/><line x1="400" y1="0" x2="400" y2="1300" stroke="#8fb4ff" stroke-width="1"/><line x1="440" y1="0" x2="440" y2="1300" stroke="#8fb4ff" stroke-width="1"/><line x1="480" y1="0" x2="480" y2="1300" stroke="#8fb4ff" stroke-width="1"/><line x1="520" y1="0" x2="520" y2="1300" stroke="#8fb4ff" stroke-width="1"/><line x1="560" y1="0" x2="560" y2="1300" stroke="#8fb4ff" stroke-width="1"/><line x1="600" y1="0" x2="600" y2="1300" stroke="#8fb4ff" stroke-width="1"/><line x1="640" y1="0" x2="640" y2="1300" stroke="#8fb4ff" stroke-width="1"/><line x1="680" y1="0" x2="680" y2="1300" stroke="#8fb4ff" stroke-width="1"/><line x1="720" y1="0" x2="720" y2="1300" stroke="#8fb4ff" stroke-width="1"/><line x1="760" y1="0" x2="760" y2="1300" stroke="#8fb4ff" stroke-width="1"/><line x1="800" y1="0" x2="800" y2="1300" stroke="#8fb4ff" stroke-width="1"/><line x1="840" y1="0" x2="840" y2="1300" stroke="#8fb4ff" stroke-width="1"/><line x1="880" y1="0" x2="880" y2="1300" stroke="#8fb4ff" stroke-width="1"/><line x1="920" y1="0" x2="920" y2="1300" stroke="#8fb4ff" stroke-width="1"/><line x1="960" y1="0" x2="960" y2="1300" stroke="#8fb4ff" stroke-width="1"/><line x1="1000" y1="0" x2="1000" y2="1300" stroke="#8fb4ff" stroke-width="1"/><line x1="1040" y1="0" x2="1040" y2="1300" stroke="#8fb4ff" stroke-width="1"/><line x1="1080" y1="0" x2="1080" y2="1300" stroke="#8fb4ff" stroke-width="1"/><line x1="1120" y1="0" x2="1120" y2="1300" stroke="#8fb4ff" stroke-width="1"/><line x1="1160" y1="0" x2="1160" y2="1300" stroke="#8fb4ff" stroke-width="1"/><line x1="1200" y1="0" x2="1200" y2="1300" stroke="#8fb4ff" stroke-width="1"/><line x1="1240" y1="0" x2="1240" y2="1300" stroke="#8fb4ff" stroke-width="1"/><line x1="1280" y1="0" x2="1280" y2="1300" stroke="#8fb4ff" stroke-width="1"/><line x1="1320" y1="0" x2="1320" y2="1300" stroke="#8fb4ff" stroke-width="1"/><line x1="1360" y1="0" x2="1360" y2="1300" stroke="#8fb4ff" stroke-width="1"/><line x1="1400" y1="0" x2="1400" y2="1300" stroke="#8fb4ff" stroke-width="1"/><line x1="1440" y1="0" x2="1440" y2="1300" stroke="#8fb4ff" stroke-width="1"/><line x1="1480" y1="0" x2="1480" y2="1300" stroke="#8fb4ff" stroke-width="1"/><line x1="1520" y1="0" x2="1520" y2="1300" stroke="#8fb4ff" stroke-width="1"/><line x1="1560" y1="0" x2="1560" y2="1300" stroke="#8fb4ff" stroke-width="1"/><line x1="1600" y1="0" x2="1600" y2="1300" stroke="#8fb4ff" stroke-width="1"/><line x1="1640" y1="0" x2="1640" y2="1300" stroke="#8fb4ff" stroke-width="1"/><line x1="1680" y1="0" x2="1680" y2="1300" stroke="#8fb4ff" stroke-width="1"/><line x1="0" y1="40" x2="1700" y2="40" stroke="#8fb4ff" stroke-width="1"/><line x1="0" y1="80" x2="1700" y2="80" stroke="#8fb4ff" stroke-width="1"/><line x1="0" y1="120" x2="1700" y2="120" stroke="#8fb4ff" stroke-width="1"/><line x1="0" y1="160" x2="1700" y2="160" stroke="#8fb4ff" stroke-width="1"/><line x1="0" y1="200" x2="1700" y2="200" stroke="#8fb4ff" stroke-width="1"/><line x1="0" y1="240" x2="1700" y2="240" stroke="#8fb4ff" stroke-width="1"/><line x1="0" y1="280" x2="1700" y2="280" stroke="#8fb4ff" stroke-width="1"/><line x1="0" y1="320" x2="1700" y2="320" stroke="#8fb4ff" stroke-width="1"/><line x1="0" y1="360" x2="1700" y2="360" stroke="#8fb4ff" stroke-width="1"/><line x1="0" y1="400" x2="1700" y2="400" stroke="#8fb4ff" stroke-width="1"/><line x1="0" y1="440" x2="1700" y2="440" stroke="#8fb4ff" stroke-width="1"/><line x1="0" y1="480" x2="1700" y2="480" stroke="#8fb4ff" stroke-width="1"/><line x1="0" y1="520" x2="1700" y2="520" stroke="#8fb4ff" stroke-width="1"/><line x1="0" y1="560" x2="1700" y2="560" stroke="#8fb4ff" stroke-width="1"/><line x1="0" y1="600" x2="1700" y2="600" stroke="#8fb4ff" stroke-width="1"/><line x1="0" y1="640" x2="1700" y2="640" stroke="#8fb4ff" stroke-width="1"/><line x1="0" y1="680" x2="1700" y2="680" stroke="#8fb4ff" stroke-width="1"/><line x1="0" y1="720" x2="1700" y2="720" stroke="#8fb4ff" stroke-width="1"/><line x1="0" y1="760" x2="1700" y2="760" stroke="#8fb4ff" stroke-width="1"/><line x1="0" y1="800" x2="1700" y2="800" stroke="#8fb4ff" stroke-width="1"/><line x1="0" y1="840" x2="1700" y2="840" stroke="#8fb4ff" stroke-width="1"/><line x1="0" y1="880" x2="1700" y2="880" stroke="#8fb4ff" stroke-width="1"/><line x1="0" y1="920" x2="1700" y2="920" stroke="#8fb4ff" stroke-width="1"/><line x1="0" y1="960" x2="1700" y2="960" stroke="#8fb4ff" stroke-width="1"/><line x1="0" y1="1000" x2="1700" y2="1000" stroke="#8fb4ff" stroke-width="1"/><line x1="0" y1="1040" x2="1700" y2="1040" stroke="#8fb4ff" stroke-width="1"/><line x1="0" y1="1080" x2="1700" y2="1080" stroke="#8fb4ff" stroke-width="1"/><line x1="0" y1="1120" x2="1700" y2="1120" stroke="#8fb4ff" stroke-width="1"/><line x1="0" y1="1160" x2="1700" y2="1160" stroke="#8fb4ff" stroke-width="1"/><line x1="0" y1="1200" x2="1700" y2="1200" stroke="#8fb4ff" stroke-width="1"/><line x1="0" y1="1240" x2="1700" y2="1240" stroke="#8fb4ff" stroke-width="1"/><line x1="0" y1="1280" x2="1700" y2="1280" stroke="#8fb4ff" stroke-width="1"/></g>
<text x="850.0" y="52" text-anchor="middle" font-size="30" font-weight="700" fill="#f8fafc">SEC &#8212; Managed Security Network for Banking Clients</text>
<text x="850.0" y="80" text-anchor="middle" font-size="15" fill="#94a3b8">Multi-site WAN &#183; OSPF Area 0 Backbone &#183; VLAN-Segmented Bank LANs</text>
<g font-size="13" fill="#cbd5e1"><rect x="380.0" y="94" width="16" height="16" rx="3" fill="url(#routerGrad)"/><text x="402.0" y="106">Router</text><rect x="590.0" y="94" width="16" height="16" rx="3" fill="url(#mlsGrad)"/><text x="612.0" y="106">Multilayer Switch</text><rect x="800.0" y="94" width="16" height="16" rx="3" fill="url(#swGrad)"/><text x="822.0" y="106">Access Switch</text><rect x="1010.0" y="94" width="16" height="16" rx="3" fill="url(#srvGrad)"/><text x="1032.0" y="106">Server</text><rect x="1220.0" y="94" width="16" height="16" rx="3" fill="#ef4444"/><text x="1242.0" y="106">WAN Backbone (OSPF)</text></g><rect x="30" y="140" width="720" height="330" rx="16" fill="#1e293b" fill-opacity="0.35" stroke="#334155" stroke-width="1.5" stroke-dasharray="4 4"/><text x="48" y="166" font-size="15" font-weight="700" fill="#f1f5f9">SEC &#8212; Company Headquarters</text><text x="48" y="183" font-size="11.5" fill="#7dd3fc" font-family="Consolas, monospace">192.168.10.0/24  &#183;  Security Services &amp; Monitoring Hub</text><rect x="30" y="500" width="480" height="430" rx="16" fill="#1e293b" fill-opacity="0.35" stroke="#334155" stroke-width="1.5" stroke-dasharray="4 4"/><text x="48" y="526" font-size="15" font-weight="700" fill="#f1f5f9">Ahli Bank Branch</text><text x="48" y="543" font-size="11.5" fill="#7dd3fc" font-family="Consolas, monospace">192.168.50.0/24  &#183;  10 workstations</text><rect x="1190" y="500" width="480" height="430" rx="16" fill="#1e293b" fill-opacity="0.35" stroke="#334155" stroke-width="1.5" stroke-dasharray="4 4"/><text x="1208" y="526" font-size="15" font-weight="700" fill="#f1f5f9">Arab Bank Branch</text><text x="1208" y="543" font-size="11.5" fill="#7dd3fc" font-family="Consolas, monospace">192.168.100.0/24  &#183;  10 workstations</text><rect x="610" y="800" width="480" height="460" rx="16" fill="#1e293b" fill-opacity="0.35" stroke="#334155" stroke-width="1.5" stroke-dasharray="4 4"/><text x="628" y="826" font-size="15" font-weight="700" fill="#f1f5f9">Rajhi Bank Branch</text><text x="628" y="843" font-size="11.5" fill="#7dd3fc" font-family="Consolas, monospace">192.168.150.0/24  &#183;  10 workstations</text><rect x="1190" y="140" width="480" height="330" rx="16" fill="#1e293b" fill-opacity="0.35" stroke="#334155" stroke-width="1.5" stroke-dasharray="4 4"/><text x="1208" y="166" font-size="15" font-weight="700" fill="#f1f5f9">WAN Core</text><text x="1208" y="183" font-size="11.5" fill="#7dd3fc" font-family="Consolas, monospace">100.100.100.0/30 blocks &#183; OSPF Area 0 &#183; Point-to-Point Serial Links</text><g font-size="12" fill="#cbd8e6"><text x="1220" y="200">4 dedicated leased-line routers form a partial-mesh WAN</text><text x="1220" y="220">core (5 links) so any branch keeps reachability to SEC</text><text x="1220" y="240">even if one serial link fails.</text><text x="1220" y="272" fill="#7dd3fc" font-family="Consolas, monospace">router ospf 100</text><text x="1220" y="292" fill="#7dd3fc" font-family="Consolas, monospace">area 0 &#183; auto-redistribution off</text><text x="1220" y="330" fill="#94a3b8">Services: SSH mgmt &#183; AAA local auth</text><text x="1220" y="348" fill="#94a3b8">Port Security &#183; Console line protection</text></g><line x1="390" y1="430" x2="270" y2="610" stroke="#ef4444" stroke-width="3" stroke-linecap="round"/><rect x="229.6" y="500.0" width="120.8" height="16" rx="4" fill="#0a0f1e" opacity="0.85"/><text x="290.0" y="512.0" text-anchor="middle" font-size="10.5" fill="#fca5a5" font-family="Consolas, monospace">100.100.100.0/30</text><line x1="390" y1="430" x2="1430" y2="610" stroke="#ef4444" stroke-width="3" stroke-linecap="round"/><rect x="856.2" y="480.0" width="127.6" height="16" rx="4" fill="#0a0f1e" opacity="0.85"/><text x="920.0" y="492.0" text-anchor="middle" font-size="10.5" fill="#fca5a5" font-family="Consolas, monospace">100.100.100.16/30</text><line x1="390" y1="430" x2="850" y2="900" stroke="#ef4444" stroke-width="3" stroke-linecap="round"/><rect x="384.6" y="655.0" width="120.8" height="16" rx="4" fill="#0a0f1e" opacity="0.85"/><text x="445" y="667.0" text-anchor="middle" font-size="10.5" fill="#fca5a5" font-family="Consolas, monospace">100.100.100.8/30</text><line x1="270" y1="610" x2="850" y2="900" stroke="#ef4444" stroke-width="3" stroke-linecap="round"/><rect x="479.6" y="763.0" width="120.8" height="16" rx="4" fill="#0a0f1e" opacity="0.85"/><text x="540.0" y="775.0" text-anchor="middle" font-size="10.5" fill="#fca5a5" font-family="Consolas, monospace">100.100.100.4/30</text><line x1="1430" y1="610" x2="850" y2="900" stroke="#ef4444" stroke-width="3" stroke-linecap="round"/><rect x="1086.2" y="763.0" width="127.6" height="16" rx="4" fill="#0a0f1e" opacity="0.85"/><text x="1150.0" y="775.0" text-anchor="middle" font-size="10.5" fill="#fca5a5" font-family="Consolas, monospace">100.100.100.12/30</text><line x1="390" y1="300" x2="390" y2="430" stroke="#475569" stroke-width="2.4" stroke-linecap="round"/><g filter="url(#softShadow)"><rect x="363.0" y="286.5" width="54" height="27.0" rx="6" fill="url(#mlsGrad)"/><rect x="369.0" y="305.5" width="5" height="5" fill="#0f172a" opacity="0.55"/><rect x="377.0" y="305.5" width="5" height="5" fill="#0f172a" opacity="0.55"/><rect x="385.0" y="305.5" width="5" height="5" fill="#0f172a" opacity="0.55"/><rect x="393.0" y="305.5" width="5" height="5" fill="#0f172a" opacity="0.55"/><rect x="401.0" y="305.5" width="5" height="5" fill="#0f172a" opacity="0.55"/></g><text x="390" y="329.5" text-anchor="middle" font-size="12.5" font-weight="600" fill="#e2e8f0">Multilayer Switch0</text><line x1="90" y1="215" x2="390" y2="290" stroke="#475569" stroke-width="1.6" stroke-linecap="round"/><g filter="url(#softShadow)"><rect x="77.0" y="175.0" width="26" height="40" rx="4" fill="url(#srvGrad)"/><rect x="81.0" y="180.0" width="18" height="4" rx="1.5" fill="#0f172a" opacity="0.5"/><rect x="81.0" y="191.0" width="18" height="4" rx="1.5" fill="#0f172a" opacity="0.5"/><rect x="81.0" y="202.0" width="18" height="4" rx="1.5" fill="#0f172a" opacity="0.5"/></g><text x="90" y="230.0" text-anchor="middle" font-size="10.5" fill="#cbd5e1">TFTP</text><line x1="190" y1="195" x2="390" y2="290" stroke="#475569" stroke-width="1.6" stroke-linecap="round"/><g filter="url(#softShadow)"><rect x="177.0" y="155.0" width="26" height="40" rx="4" fill="url(#srvGrad)"/><rect x="181.0" y="160.0" width="18" height="4" rx="1.5" fill="#0f172a" opacity="0.5"/><rect x="181.0" y="171.0" width="18" height="4" rx="1.5" fill="#0f172a" opacity="0.5"/><rect x="181.0" y="182.0" width="18" height="4" rx="1.5" fill="#0f172a" opacity="0.5"/></g><text x="190" y="210.0" text-anchor="middle" font-size="10.5" fill="#cbd5e1">FTP</text><line x1="290" y1="195" x2="390" y2="290" stroke="#475569" stroke-width="1.6" stroke-linecap="round"/><g filter="url(#softShadow)"><rect x="277.0" y="155.0" width="26" height="40" rx="4" fill="url(#srvGrad)"/><rect x="281.0" y="160.0" width="18" height="4" rx="1.5" fill="#0f172a" opacity="0.5"/><rect x="281.0" y="171.0" width="18" height="4" rx="1.5" fill="#0f172a" opacity="0.5"/><rect x="281.0" y="182.0" width="18" height="4" rx="1.5" fill="#0f172a" opacity="0.5"/></g><text x="290" y="210.0" text-anchor="middle" font-size="10.5" fill="#cbd5e1">HTTP</text><line x1="470" y1="195" x2="390" y2="290" stroke="#475569" stroke-width="1.6" stroke-linecap="round"/><g filter="url(#softShadow)"><rect x="457.0" y="155.0" width="26" height="40" rx="4" fill="url(#srvGrad)"/><rect x="461.0" y="160.0" width="18" height="4" rx="1.5" fill="#0f172a" opacity="0.5"/><rect x="461.0" y="171.0" width="18" height="4" rx="1.5" fill="#0f172a" opacity="0.5"/><rect x="461.0" y="182.0" width="18" height="4" rx="1.5" fill="#0f172a" opacity="0.5"/></g><text x="470" y="210.0" text-anchor="middle" font-size="10.5" fill="#cbd5e1">DNS</text><line x1="570" y1="215" x2="390" y2="290" stroke="#475569" stroke-width="1.6" stroke-linecap="round"/><g filter="url(#softShadow)"><rect x="557.0" y="175.0" width="26" height="40" rx="4" fill="url(#srvGrad)"/><rect x="561.0" y="180.0" width="18" height="4" rx="1.5" fill="#0f172a" opacity="0.5"/><rect x="561.0" y="191.0" width="18" height="4" rx="1.5" fill="#0f172a" opacity="0.5"/><rect x="561.0" y="202.0" width="18" height="4" rx="1.5" fill="#0f172a" opacity="0.5"/></g><text x="570" y="230.0" text-anchor="middle" font-size="10.5" fill="#cbd5e1">Syslog</text><line x1="390" y1="185" x2="390" y2="290" stroke="#475569" stroke-width="1.6" stroke-linecap="round"/><g filter="url(#softShadow)"><rect x="377.0" y="145.0" width="26" height="40" rx="4" fill="url(#srvGrad)"/><rect x="381.0" y="150.0" width="18" height="4" rx="1.5" fill="#0f172a" opacity="0.5"/><rect x="381.0" y="161.0" width="18" height="4" rx="1.5" fill="#0f172a" opacity="0.5"/><rect x="381.0" y="172.0" width="18" height="4" rx="1.5" fill="#0f172a" opacity="0.5"/></g><text x="390" y="200.0" text-anchor="middle" font-size="10.5" fill="#cbd5e1">NTP</text><line x1="630" y1="300" x2="390" y2="300" stroke="#475569" stroke-width="1.6" stroke-linecap="round"/><rect x="614" y="290" width="32" height="20" rx="3" fill="#64748b" filter="url(#softShadow)"/><text x="630" y="328" text-anchor="middle" font-size="10.5" fill="#cbd5e1">Admin Laptop</text><g filter="url(#softShadow)"><rect x="358.0" y="410.16" width="64" height="39.68" rx="10" fill="url(#routerGrad)"/><circle cx="372.4" cy="430" r="4" fill="#dbeafe"/><circle cx="390" cy="430" r="4" fill="#dbeafe"/><circle cx="407.6" cy="430" r="4" fill="#dbeafe"/></g><text x="390" y="469.84" text-anchor="middle" font-size="14.5" font-weight="700" fill="#f1f5f9">Router &#8220;SEC&#8221;</text><text x="390" y="486.84" text-anchor="middle" font-size="11.5" fill="#93c5fd" font-family="Consolas, monospace">Gi0/0 &#183; 192.168.10.1</text><text x="390" y="501.84" text-anchor="middle" font-size="11" fill="#94a3b8">OSPF &#183; SSH &#183; DHCP</text><line x1="270" y1="700" x2="270" y2="610" stroke="#475569" stroke-width="2.4" stroke-linecap="round"/><g filter="url(#softShadow)"><rect x="247.0" y="688.5" width="46" height="23.0" rx="6" fill="url(#swGrad)"/><rect x="253.0" y="703.5" width="5" height="5" fill="#0f172a" opacity="0.55"/><rect x="261.0" y="703.5" width="5" height="5" fill="#0f172a" opacity="0.55"/><rect x="269.0" y="703.5" width="5" height="5" fill="#0f172a" opacity="0.55"/><rect x="277.0" y="703.5" width="5" height="5" fill="#0f172a" opacity="0.55"/><rect x="285.0" y="703.5" width="5" height="5" fill="#0f172a" opacity="0.55"/></g><text x="270" y="727.5" text-anchor="middle" font-size="12.5" font-weight="600" fill="#e2e8f0">Multilayer Switch3</text><line x1="110" y1="800" x2="270" y2="700" stroke="#475569" stroke-width="1.8" stroke-linecap="round"/><line x1="430" y1="800" x2="270" y2="700" stroke="#475569" stroke-width="1.8" stroke-linecap="round"/><g filter="url(#softShadow)"><rect x="87.0" y="788.5" width="46" height="23.0" rx="6" fill="url(#swGrad)"/><rect x="93.0" y="803.5" width="5" height="5" fill="#0f172a" opacity="0.55"/><rect x="101.0" y="803.5" width="5" height="5" fill="#0f172a" opacity="0.55"/><rect x="109.0" y="803.5" width="5" height="5" fill="#0f172a" opacity="0.55"/><rect x="117.0" y="803.5" width="5" height="5" fill="#0f172a" opacity="0.55"/><rect x="125.0" y="803.5" width="5" height="5" fill="#0f172a" opacity="0.55"/></g><text x="110" y="827.5" text-anchor="middle" font-size="12.5" font-weight="600" fill="#e2e8f0">Switch4</text><g filter="url(#softShadow)"><rect x="407.0" y="788.5" width="46" height="23.0" rx="6" fill="url(#swGrad)"/><rect x="413.0" y="803.5" width="5" height="5" fill="#0f172a" opacity="0.55"/><rect x="421.0" y="803.5" width="5" height="5" fill="#0f172a" opacity="0.55"/><rect x="429.0" y="803.5" width="5" height="5" fill="#0f172a" opacity="0.55"/><rect x="437.0" y="803.5" width="5" height="5" fill="#0f172a" opacity="0.55"/><rect x="445.0" y="803.5" width="5" height="5" fill="#0f172a" opacity="0.55"/></g><text x="430" y="827.5" text-anchor="middle" font-size="12.5" font-weight="600" fill="#e2e8f0">Switch5</text><line x1="110" y1="834" x2="110" y2="858" stroke="#475569" stroke-width="1.6" stroke-linecap="round"/><g filter="url(#softShadow)"><rect x="65.0" y="854" width="90" height="26" rx="6" fill="#334155"/></g><text x="110" y="872" text-anchor="middle" font-size="12" font-weight="600" fill="#e2e8f0">PC0&#8211;PC3 (x5)</text><line x1="430" y1="834" x2="430" y2="858" stroke="#475569" stroke-width="1.6" stroke-linecap="round"/><g filter="url(#softShadow)"><rect x="385.0" y="854" width="90" height="26" rx="6" fill="#334155"/></g><text x="430" y="872" text-anchor="middle" font-size="12" font-weight="600" fill="#e2e8f0">PC5&#8211;PC9 (x5)</text><g filter="url(#softShadow)"><rect x="238.0" y="590.16" width="64" height="39.68" rx="10" fill="url(#routerGrad)"/><circle cx="252.4" cy="610" r="4" fill="#dbeafe"/><circle cx="270" cy="610" r="4" fill="#dbeafe"/><circle cx="287.6" cy="610" r="4" fill="#dbeafe"/></g><text x="270" y="649.84" text-anchor="middle" font-size="14.5" font-weight="700" fill="#f1f5f9">Router &#8220;Ahli Bank&#8221;</text><text x="270" y="666.84" text-anchor="middle" font-size="11.5" fill="#93c5fd" font-family="Consolas, monospace">Gi0/0 &#183; 192.168.50.1</text><text x="270" y="681.84" text-anchor="middle" font-size="11" fill="#94a3b8">OSPF &#183; SSH &#183; DHCP</text><line x1="1430" y1="700" x2="1430" y2="610" stroke="#475569" stroke-width="2.4" stroke-linecap="round"/><g filter="url(#softShadow)"><rect x="1407.0" y="688.5" width="46" height="23.0" rx="6" fill="url(#swGrad)"/><rect x="1413.0" y="703.5" width="5" height="5" fill="#0f172a" opacity="0.55"/><rect x="1421.0" y="703.5" width="5" height="5" fill="#0f172a" opacity="0.55"/><rect x="1429.0" y="703.5" width="5" height="5" fill="#0f172a" opacity="0.55"/><rect x="1437.0" y="703.5" width="5" height="5" fill="#0f172a" opacity="0.55"/><rect x="1445.0" y="703.5" width="5" height="5" fill="#0f172a" opacity="0.55"/></g><text x="1430" y="727.5" text-anchor="middle" font-size="12.5" font-weight="600" fill="#e2e8f0">Multilayer Switch1</text><line x1="1290" y1="800" x2="1430" y2="700" stroke="#475569" stroke-width="1.8" stroke-linecap="round"/><line x1="1590" y1="800" x2="1430" y2="700" stroke="#475569" stroke-width="1.8" stroke-linecap="round"/><g filter="url(#softShadow)"><rect x="1267.0" y="788.5" width="46" height="23.0" rx="6" fill="url(#swGrad)"/><rect x="1273.0" y="803.5" width="5" height="5" fill="#0f172a" opacity="0.55"/><rect x="1281.0" y="803.5" width="5" height="5" fill="#0f172a" opacity="0.55"/><rect x="1289.0" y="803.5" width="5" height="5" fill="#0f172a" opacity="0.55"/><rect x="1297.0" y="803.5" width="5" height="5" fill="#0f172a" opacity="0.55"/><rect x="1305.0" y="803.5" width="5" height="5" fill="#0f172a" opacity="0.55"/></g><text x="1290" y="827.5" text-anchor="middle" font-size="12.5" font-weight="600" fill="#e2e8f0">Switch0</text><g filter="url(#softShadow)"><rect x="1567.0" y="788.5" width="46" height="23.0" rx="6" fill="url(#swGrad)"/><rect x="1573.0" y="803.5" width="5" height="5" fill="#0f172a" opacity="0.55"/><rect x="1581.0" y="803.5" width="5" height="5" fill="#0f172a" opacity="0.55"/><rect x="1589.0" y="803.5" width="5" height="5" fill="#0f172a" opacity="0.55"/><rect x="1597.0" y="803.5" width="5" height="5" fill="#0f172a" opacity="0.55"/><rect x="1605.0" y="803.5" width="5" height="5" fill="#0f172a" opacity="0.55"/></g><text x="1590" y="827.5" text-anchor="middle" font-size="12.5" font-weight="600" fill="#e2e8f0">Switch1</text><line x1="1290" y1="834" x2="1290" y2="858" stroke="#475569" stroke-width="1.6" stroke-linecap="round"/><g filter="url(#softShadow)"><rect x="1245.0" y="854" width="90" height="26" rx="6" fill="#334155"/></g><text x="1290" y="872" text-anchor="middle" font-size="12" font-weight="600" fill="#e2e8f0">PC20&#8211;24 (x5)</text><line x1="1590" y1="834" x2="1590" y2="858" stroke="#475569" stroke-width="1.6" stroke-linecap="round"/><g filter="url(#softShadow)"><rect x="1545.0" y="854" width="90" height="26" rx="6" fill="#334155"/></g><text x="1590" y="872" text-anchor="middle" font-size="12" font-weight="600" fill="#e2e8f0">PC25&#8211;29 (x5)</text><g filter="url(#softShadow)"><rect x="1398.0" y="590.16" width="64" height="39.68" rx="10" fill="url(#routerGrad)"/><circle cx="1412.4" cy="610" r="4" fill="#dbeafe"/><circle cx="1430" cy="610" r="4" fill="#dbeafe"/><circle cx="1447.6" cy="610" r="4" fill="#dbeafe"/></g><text x="1430" y="649.84" text-anchor="middle" font-size="14.5" font-weight="700" fill="#f1f5f9">Router &#8220;Arab Bank&#8221;</text><text x="1430" y="666.84" text-anchor="middle" font-size="11.5" fill="#93c5fd" font-family="Consolas, monospace">Gi0/0 &#183; 192.168.100.1</text><text x="1430" y="681.84" text-anchor="middle" font-size="11" fill="#94a3b8">OSPF &#183; SSH &#183; DHCP</text><line x1="850" y1="990" x2="850" y2="900" stroke="#475569" stroke-width="2.4" stroke-linecap="round"/><g filter="url(#softShadow)"><rect x="827.0" y="978.5" width="46" height="23.0" rx="6" fill="url(#swGrad)"/><rect x="833.0" y="993.5" width="5" height="5" fill="#0f172a" opacity="0.55"/><rect x="841.0" y="993.5" width="5" height="5" fill="#0f172a" opacity="0.55"/><rect x="849.0" y="993.5" width="5" height="5" fill="#0f172a" opacity="0.55"/><rect x="857.0" y="993.5" width="5" height="5" fill="#0f172a" opacity="0.55"/><rect x="865.0" y="993.5" width="5" height="5" fill="#0f172a" opacity="0.55"/></g><text x="850" y="1017.5" text-anchor="middle" font-size="12.5" font-weight="600" fill="#e2e8f0">Multilayer Switch2</text><line x1="720" y1="1090" x2="850" y2="990" stroke="#475569" stroke-width="1.8" stroke-linecap="round"/><line x1="980" y1="1090" x2="850" y2="990" stroke="#475569" stroke-width="1.8" stroke-linecap="round"/><g filter="url(#softShadow)"><rect x="697.0" y="1078.5" width="46" height="23.0" rx="6" fill="url(#swGrad)"/><rect x="703.0" y="1093.5" width="5" height="5" fill="#0f172a" opacity="0.55"/><rect x="711.0" y="1093.5" width="5" height="5" fill="#0f172a" opacity="0.55"/><rect x="719.0" y="1093.5" width="5" height="5" fill="#0f172a" opacity="0.55"/><rect x="727.0" y="1093.5" width="5" height="5" fill="#0f172a" opacity="0.55"/><rect x="735.0" y="1093.5" width="5" height="5" fill="#0f172a" opacity="0.55"/></g><text x="720" y="1117.5" text-anchor="middle" font-size="12.5" font-weight="600" fill="#e2e8f0">Switch</text><g filter="url(#softShadow)"><rect x="957.0" y="1078.5" width="46" height="23.0" rx="6" fill="url(#swGrad)"/><rect x="963.0" y="1093.5" width="5" height="5" fill="#0f172a" opacity="0.55"/><rect x="971.0" y="1093.5" width="5" height="5" fill="#0f172a" opacity="0.55"/><rect x="979.0" y="1093.5" width="5" height="5" fill="#0f172a" opacity="0.55"/><rect x="987.0" y="1093.5" width="5" height="5" fill="#0f172a" opacity="0.55"/><rect x="995.0" y="1093.5" width="5" height="5" fill="#0f172a" opacity="0.55"/></g><text x="980" y="1117.5" text-anchor="middle" font-size="12.5" font-weight="600" fill="#e2e8f0">Switch</text><line x1="720" y1="1124" x2="720" y2="1148" stroke="#475569" stroke-width="1.6" stroke-linecap="round"/><g filter="url(#softShadow)"><rect x="675.0" y="1144" width="90" height="26" rx="6" fill="#334155"/></g><text x="720" y="1162" text-anchor="middle" font-size="12" font-weight="600" fill="#e2e8f0">PC10&#8211;14 (x5)</text><line x1="980" y1="1124" x2="980" y2="1148" stroke="#475569" stroke-width="1.6" stroke-linecap="round"/><g filter="url(#softShadow)"><rect x="935.0" y="1144" width="90" height="26" rx="6" fill="#334155"/></g><text x="980" y="1162" text-anchor="middle" font-size="12" font-weight="600" fill="#e2e8f0">PC15&#8211;19 (x5)</text><g filter="url(#softShadow)"><rect x="818.0" y="880.16" width="64" height="39.68" rx="10" fill="url(#routerGrad)"/><circle cx="832.4" cy="900" r="4" fill="#dbeafe"/><circle cx="850" cy="900" r="4" fill="#dbeafe"/><circle cx="867.6" cy="900" r="4" fill="#dbeafe"/></g><text x="850" y="939.84" text-anchor="middle" font-size="14.5" font-weight="700" fill="#f1f5f9">Router &#8220;Rajhi Bank&#8221;</text><text x="850" y="956.84" text-anchor="middle" font-size="11.5" fill="#93c5fd" font-family="Consolas, monospace">Gi0/0 &#183; 192.168.150.1</text><text x="850" y="971.84" text-anchor="middle" font-size="11" fill="#94a3b8">OSPF &#183; SSH &#183; DHCP</text><text x="850.0" y="1282" text-anchor="middle" font-size="11.5" fill="#64748b">Simulated in Cisco Packet Tracer &#8212; redrawn for documentation clarity</text></svg>